<?xml version="1.0" encoding="UTF-8" standalone="no"?>
<!DOCTYPE svg PUBLIC "-//W3C//DTD SVG 1.1//EN"
 "http://www.w3.org/Graphics/SVG/1.1/DTD/svg11.dtd">
<!-- Generated by graphviz version 2.44.1 (20200629.0846)
 -->
<!-- Pages: 1 -->
<svg width="1177pt" height="260pt"
 viewBox="0.00 0.00 1177.29 260.00" xmlns="http://www.w3.org/2000/svg" xmlns:xlink="http://www.w3.org/1999/xlink">
<g id="graph0" class="graph" transform="scale(1 1) rotate(0) translate(4 256)">
<polygon fill="white" stroke="transparent" points="-4,4 -4,-256 1173.29,-256 1173.29,4 -4,4"/>
<!-- apparmor -->
<g id="node1" class="node">
<title>apparmor</title>
<ellipse fill="none" stroke="black" cx="55.9" cy="-90" rx="55.79" ry="18"/>
<text text-anchor="middle" x="55.9" y="-86.3" font-family="Times,serif" font-size="14.00">apparmor</text>
</g>
<!-- systemd&#45;reexec -->
<g id="node2" class="node">
<title>systemd&#45;reexec</title>
<ellipse fill="none" stroke="black" cx="286.9" cy="-18" rx="83.39" ry="18"/>
<text text-anchor="middle" x="286.9" y="-14.3" font-family="Times,serif" font-size="14.00">systemd&#45;reexec</text>
</g>
<!-- apparmor&#45;&gt;systemd&#45;reexec -->
<g id="edge1" class="edge">
<title>apparmor&#45;&gt;systemd&#45;reexec</title>
<path fill="none" stroke="black" d="M95.08,-77.13C132.38,-65.82 188.9,-48.7 230.94,-35.96"/>
<polygon fill="black" stroke="black" points="232.19,-39.23 240.75,-32.98 230.16,-32.53 232.19,-39.23"/>
</g>
<!-- clr&#45;boot&#45;manager -->
<g id="node3" class="node">
<title>clr&#45;boot&#45;manager</title>
<ellipse fill="none" stroke="black" cx="844.9" cy="-162" rx="90.18" ry="18"/>
<text text-anchor="middle" x="844.9" y="-158.3" font-family="Times,serif" font-size="14.00">clr&#45;boot&#45;manager</text>
</g>
<!-- depmod -->
<g id="node4" class="node">
<title>depmod</title>
<ellipse fill="none" stroke="black" cx="826.9" cy="-90" rx="48.19" ry="18"/>
<text text-anchor="middle" x="826.9" y="-86.3" font-family="Times,serif" font-size="14.00">depmod</text>
</g>
<!-- clr&#45;boot&#45;manager&#45;&gt;depmod -->
<g id="edge2" class="edge">
<title>clr&#45;boot&#45;manager&#45;&gt;depmod</title>
<path fill="none" stroke="black" d="M840.45,-143.7C838.44,-135.9 836.03,-126.51 833.79,-117.83"/>
<polygon fill="black" stroke="black" points="837.17,-116.92 831.29,-108.1 830.39,-118.66 837.17,-116.92"/>
</g>
<!-- dconf -->
<g id="node5" class="node">
<title>dconf</title>
<ellipse fill="none" stroke="black" cx="989.9" cy="-234" rx="36.29" ry="18"/>
<text text-anchor="middle" x="989.9" y="-230.3" font-family="Times,serif" font-size="14.00">dconf</text>
</g>
<!-- gconf -->
<g id="node6" class="node">
<title>gconf</title>
<ellipse fill="none" stroke="black" cx="989.9" cy="-162" rx="36.29" ry="18"/>
<text text-anchor="middle" x="989.9" y="-158.3" font-family="Times,serif" font-size="14.00">gconf</text>
</g>
<!-- dconf&#45;&gt;gconf -->
<g id="edge3" class="edge">
<title>dconf&#45;&gt;gconf</title>
<path fill="none" stroke="black" d="M989.9,-215.7C989.9,-207.98 989.9,-198.71 989.9,-190.11"/>
<polygon fill="black" stroke="black" points="993.4,-190.1 989.9,-180.1 986.4,-190.1 993.4,-190.1"/>
</g>
<!-- glib2 -->
<g id="node7" class="node">
<title>glib2</title>
<ellipse fill="none" stroke="black" cx="989.9" cy="-90" rx="34.39" ry="18"/>
<text text-anchor="middle" x="989.9" y="-86.3" font-family="Times,serif" font-size="14.00">glib2</text>
</g>
<!-- gconf&#45;&gt;glib2 -->
<g id="edge4" class="edge">
<title>gconf&#45;&gt;glib2</title>
<path fill="none" stroke="black" d="M989.9,-143.7C989.9,-135.98 989.9,-126.71 989.9,-118.11"/>
<polygon fill="black" stroke="black" points="993.4,-118.1 989.9,-108.1 986.4,-118.1 993.4,-118.1"/>
</g>
<!-- hwdb -->
<g id="node8" class="node">
<title>hwdb</title>
<ellipse fill="none" stroke="black" cx="203.9" cy="-90" rx="36.29" ry="18"/>
<text text-anchor="middle" x="203.9" y="-86.3" font-family="Times,serif" font-size="14.00">hwdb</text>
</g>
<!-- hwdb&#45;&gt;systemd&#45;reexec -->
<g id="edge5" class="edge">
<title>hwdb&#45;&gt;systemd&#45;reexec</title>
<path fill="none" stroke="black" d="M221.5,-74.15C232.51,-64.87 246.92,-52.72 259.41,-42.18"/>
<polygon fill="black" stroke="black" points="261.9,-44.66 267.28,-35.54 257.38,-39.31 261.9,-44.66"/>
</g>
<!-- linux&#45;driver&#45;management -->
<g id="node9" class="node">
<title>linux&#45;driver&#45;management</title>
<ellipse fill="none" stroke="black" cx="608.9" cy="-162" rx="128.08" ry="18"/>
<text text-anchor="middle" x="608.9" y="-158.3" font-family="Times,serif" font-size="14.00">linux&#45;driver&#45;management</text>
</g>
<!-- linux&#45;driver&#45;management&#45;&gt;depmod -->
<g id="edge6" class="edge">
<title>linux&#45;driver&#45;management&#45;&gt;depmod</title>
<path fill="none" stroke="black" d="M657.82,-145.29C695,-133.35 745.73,-117.06 781.91,-105.45"/>
<polygon fill="black" stroke="black" points="783.25,-108.69 791.7,-102.3 781.11,-102.03 783.25,-108.69"/>
</g>
<!-- mono&#45;certs -->
<g id="node10" class="node">
<title>mono&#45;certs</title>
<ellipse fill="none" stroke="black" cx="1106.9" cy="-234" rx="62.29" ry="18"/>
<text text-anchor="middle" x="1106.9" y="-230.3" font-family="Times,serif" font-size="14.00">mono&#45;certs</text>
</g>
<!-- ssl -->
<g id="node11" class="node">
<title>ssl</title>
<ellipse fill="none" stroke="black" cx="1106.9" cy="-162" rx="27" ry="18"/>
<text text-anchor="middle" x="1106.9" y="-158.3" font-family="Times,serif" font-size="14.00">ssl</text>
</g>
<!-- mono&#45;certs&#45;&gt;ssl -->
<g id="edge7" class="edge">
<title>mono&#45;certs&#45;&gt;ssl</title>
<path fill="none" stroke="black" d="M1106.9,-215.7C1106.9,-207.98 1106.9,-198.71 1106.9,-190.11"/>
<polygon fill="black" stroke="black" points="1110.4,-190.1 1106.9,-180.1 1103.4,-190.1 1110.4,-190.1"/>
</g>
<!-- qol&#45;assist -->
<g id="node12" class="node">
<title>qol&#45;assist</title>
<ellipse fill="none" stroke="black" cx="325.9" cy="-234" rx="54.69" ry="18"/>
<text text-anchor="middle" x="325.9" y="-230.3" font-family="Times,serif" font-size="14.00">qol&#45;assist</text>
</g>
<!-- qol&#45;assist&#45;&gt;systemd&#45;reexec -->
<g id="edge8" class="edge">
<title>qol&#45;assist&#45;&gt;systemd&#45;reexec</title>
<path fill="none" stroke="black" d="M310.76,-216.21C302.93,-206.41 294.14,-193.36 289.9,-180 275.6,-135 278.86,-79.29 282.74,-46.6"/>
<polygon fill="black" stroke="black" points="286.24,-46.81 284.05,-36.44 279.3,-45.91 286.24,-46.81"/>
</g>
<!-- systemd&#45;reload -->
<g id="node13" class="node">
<title>systemd&#45;reload</title>
<ellipse fill="none" stroke="black" cx="380.9" cy="-162" rx="81.79" ry="18"/>
<text text-anchor="middle" x="380.9" y="-158.3" font-family="Times,serif" font-size="14.00">systemd&#45;reload</text>
</g>
<!-- qol&#45;assist&#45;&gt;systemd&#45;reload -->
<g id="edge9" class="edge">
<title>qol&#45;assist&#45;&gt;systemd&#45;reload</title>
<path fill="none" stroke="black" d="M338.93,-216.41C345.61,-207.91 353.89,-197.37 361.32,-187.91"/>
<polygon fill="black" stroke="black" points="364.15,-189.98 367.57,-179.96 358.64,-185.66 364.15,-189.98"/>
</g>
<!-- systemd&#45;reload&#45;&gt;systemd&#45;reexec -->
<g id="edge10" class="edge">
<title>systemd&#45;reload&#45;&gt;systemd&#45;reexec</title>
<path fill="none" stroke="black" d="M359.69,-144.59C348.25,-134.9 334.53,-121.84 324.9,-108 311.53,-88.8 301.46,-64.17 295.06,-45.68"/>
<polygon fill="black" stroke="black" points="298.36,-44.5 291.88,-36.12 291.71,-46.71 298.36,-44.5"/>
</g>
<!-- sysusers -->
<g id="node14" class="node">
<title>sysusers</title>
<ellipse fill="none" stroke="black" cx="384.9" cy="-90" rx="51.19" ry="18"/>
<text text-anchor="middle" x="384.9" y="-86.3" font-family="Times,serif" font-size="14.00">sysusers</text>
</g>
<!-- systemd&#45;reload&#45;&gt;sysusers -->
<g id="edge11" class="edge">
<title>systemd&#45;reload&#45;&gt;sysusers</title>
<path fill="none" stroke="black" d="M381.88,-143.7C382.32,-135.98 382.85,-126.71 383.35,-118.11"/>
<polygon fill="black" stroke="black" points="386.84,-118.29 383.92,-108.1 379.85,-117.89 386.84,-118.29"/>
</g>
<!-- tmpfiles -->
<g id="node15" class="node">
<title>tmpfiles</title>
<ellipse fill="none" stroke="black" cx="501.9" cy="-90" rx="48.19" ry="18"/>
<text text-anchor="middle" x="501.9" y="-86.3" font-family="Times,serif" font-size="14.00">tmpfiles</text>
</g>
<!-- systemd&#45;reload&#45;&gt;tmpfiles -->
<g id="edge12" class="edge">
<title>systemd&#45;reload&#45;&gt;tmpfiles</title>
<path fill="none" stroke="black" d="M408.65,-144.94C426.28,-134.74 449.22,-121.47 467.93,-110.65"/>
<polygon fill="black" stroke="black" points="469.83,-113.59 476.74,-105.56 466.33,-107.53 469.83,-113.59"/>
</g>
<!-- sysusers&#45;&gt;systemd&#45;reexec -->
<g id="edge14" class="edge">
<title>sysusers&#45;&gt;systemd&#45;reexec</title>
<path fill="none" stroke="black" d="M363.15,-73.46C349.95,-64.04 332.88,-51.85 318.24,-41.39"/>
<polygon fill="black" stroke="black" points="320.12,-38.43 309.95,-35.47 316.05,-44.13 320.12,-38.43"/>
</g>
<!-- tmpfiles&#45;&gt;systemd&#45;reexec -->
<g id="edge15" class="edge">
<title>tmpfiles&#45;&gt;systemd&#45;reexec</title>
<path fill="none" stroke="black" d="M466.87,-77.6C432.65,-66.45 380.08,-49.34 340.58,-36.48"/>
<polygon fill="black" stroke="black" points="341.43,-33.07 330.83,-33.31 339.26,-39.73 341.43,-33.07"/>
</g>
<!-- systemd&#45;sockets -->
<g id="node16" class="node">
<title>systemd&#45;sockets</title>
<ellipse fill="none" stroke="black" cx="654.9" cy="-90" rx="87.18" ry="18"/>
<text text-anchor="middle" x="654.9" y="-86.3" font-family="Times,serif" font-size="14.00">systemd&#45;sockets</text>
</g>
<!-- systemd&#45;sockets&#45;&gt;systemd&#45;reexec -->
<g id="edge13" class="edge">
<title>systemd&#45;sockets&#45;&gt;systemd&#45;reexec</title>
<path fill="none" stroke="black" d="M592.88,-77.2C527.81,-64.83 425.68,-45.4 357.54,-32.44"/>
<polygon fill="black" stroke="black" points="357.8,-28.92 347.32,-30.49 356.49,-35.8 357.8,-28.92"/>
</g>
<!-- udev&#45;rules -->
<g id="node17" class="node">
<title>udev&#45;rules</title>
<ellipse fill="none" stroke="black" cx="159.9" cy="-162" rx="59.59" ry="18"/>
<text text-anchor="middle" x="159.9" y="-158.3" font-family="Times,serif" font-size="14.00">udev&#45;rules</text>
</g>
<!-- udev&#45;rules&#45;&gt;systemd&#45;reexec -->
<g id="edge17" class="edge">
<title>udev&#45;rules&#45;&gt;systemd&#45;reexec</title>
<path fill="none" stroke="black" d="M154.42,-143.99C149.35,-124.79 144.56,-93.46 158.9,-72 171.64,-52.93 192.66,-40.71 214.02,-32.88"/>
<polygon fill="black" stroke="black" points="215.13,-36.2 223.49,-29.69 212.9,-29.57 215.13,-36.2"/>
</g>
<!-- udev&#45;rules&#45;&gt;hwdb -->
<g id="edge16" class="edge">
<title>udev&#45;rules&#45;&gt;hwdb</title>
<path fill="none" stroke="black" d="M170.55,-144.05C175.87,-135.59 182.4,-125.19 188.28,-115.84"/>
<polygon fill="black" stroke="black" points="191.29,-117.64 193.64,-107.31 185.36,-113.91 191.29,-117.64"/>
</g>
<!-- vbox&#45;restart -->
<g id="node18" class="node">
<title>vbox&#45;restart</title>
<ellipse fill="none" stroke="black" cx="844.9" cy="-234" rx="67.69" ry="18"/>
<text text-anchor="middle" x="844.9" y="-230.3" font-family="Times,serif" font-size="14.00">vbox&#45;restart</text>
</g>
<!-- vbox&#45;restart&#45;&gt;clr&#45;boot&#45;manager -->
<g id="edge18" class="edge">
<title>vbox&#45;restart&#45;&gt;clr&#45;boot&#45;manager</title>
<path fill="none" stroke="black" d="M844.9,-215.7C844.9,-207.98 844.9,-198.71 844.9,-190.11"/>
<polygon fill="black" stroke="black" points="848.4,-190.1 844.9,-180.1 841.4,-190.1 848.4,-190.1"/>
</g>
</g>
</svg>
