<?xml version="1.0" encoding="UTF-8" standalone="no"?>
<!DOCTYPE svg PUBLIC "-//W3C//DTD SVG 1.1//EN"
 "http://www.w3.org/Graphics/SVG/1.1/DTD/svg11.dtd">
<!-- Generated by graphviz version 2.44.1 (20200629.0846)
 -->
<!-- Pages: 1 -->
<svg width="1143pt" height="260pt"
 viewBox="0.00 0.00 1143.29 260.00" xmlns="http://www.w3.org/2000/svg" xmlns:xlink="http://www.w3.org/1999/xlink">
<g id="graph0" class="graph" transform="scale(1 1) rotate(0) translate(4 256)">
<polygon fill="white" stroke="transparent" points="-4,4 -4,-256 1139.29,-256 1139.29,4 -4,4"/>
<!-- apparmor -->
<g id="node1" class="node">
<title>apparmor</title>
<ellipse fill="none" stroke="black" cx="55.9" cy="-90" rx="55.79" ry="18"/>
<text text-anchor="middle" x="55.9" y="-86.3" font-family="Times,serif" font-size="14.00">apparmor</text>
</g>
<!-- systemd&#45;reexec -->
<g id="node2" class="node">
<title>systemd&#45;reexec</title>
<ellipse fill="none" stroke="black" cx="267.9" cy="-18" rx="83.39" ry="18"/>
<text text-anchor="middle" x="267.9" y="-14.3" font-family="Times,serif" font-size="14.00">systemd&#45;reexec</text>
</g>
<!-- apparmor&#45;&gt;systemd&#45;reexec -->
<g id="edge1" class="edge">
<title>apparmor&#45;&gt;systemd&#45;reexec</title>
<path fill="none" stroke="black" d="M93.8,-76.49C127.36,-65.4 176.72,-49.1 214.32,-36.69"/>
<polygon fill="black" stroke="black" points="215.7,-39.92 224.1,-33.46 213.51,-33.27 215.7,-39.92"/>
</g>
<!-- clr&#45;boot&#45;manager -->
<g id="node3" class="node">
<title>clr&#45;boot&#45;manager</title>
<ellipse fill="none" stroke="black" cx="810.9" cy="-162" rx="90.18" ry="18"/>
<text text-anchor="middle" x="810.9" y="-158.3" font-family="Times,serif" font-size="14.00">clr&#45;boot&#45;manager</text>
</g>
<!-- depmod -->
<g id="node4" class="node">
<title>depmod</title>
<ellipse fill="none" stroke="black" cx="790.9" cy="-90" rx="48.19" ry="18"/>
<text text-anchor="middle" x="790.9" y="-86.3" font-family="Times,serif" font-size="14.00">depmod</text>
</g>
<!-- clr&#45;boot&#45;manager&#45;&gt;depmod -->
<g id="edge2" class="edge">
<title>clr&#45;boot&#45;manager&#45;&gt;depmod</title>
<path fill="none" stroke="black" d="M805.95,-143.7C803.72,-135.9 801.04,-126.51 798.56,-117.83"/>
<polygon fill="black" stroke="black" points="801.89,-116.76 795.78,-108.1 795.16,-118.68 801.89,-116.76"/>
</g>
<!-- dconf -->
<g id="node5" class="node">
<title>dconf</title>
<ellipse fill="none" stroke="black" cx="955.9" cy="-234" rx="36.29" ry="18"/>
<text text-anchor="middle" x="955.9" y="-230.3" font-family="Times,serif" font-size="14.00">dconf</text>
</g>
<!-- gconf -->
<g id="node6" class="node">
<title>gconf</title>
<ellipse fill="none" stroke="black" cx="955.9" cy="-162" rx="36.29" ry="18"/>
<text text-anchor="middle" x="955.9" y="-158.3" font-family="Times,serif" font-size="14.00">gconf</text>
</g>
<!-- dconf&#45;&gt;gconf -->
<g id="edge3" class="edge">
<title>dconf&#45;&gt;gconf</title>
<path fill="none" stroke="black" d="M955.9,-215.7C955.9,-207.98 955.9,-198.71 955.9,-190.11"/>
<polygon fill="black" stroke="black" points="959.4,-190.1 955.9,-180.1 952.4,-190.1 959.4,-190.1"/>
</g>
<!-- glib2 -->
<g id="node7" class="node">
<title>glib2</title>
<ellipse fill="none" stroke="black" cx="955.9" cy="-90" rx="34.39" ry="18"/>
<text text-anchor="middle" x="955.9" y="-86.3" font-family="Times,serif" font-size="14.00">glib2</text>
</g>
<!-- gconf&#45;&gt;glib2 -->
<g id="edge4" class="edge">
<title>gconf&#45;&gt;glib2</title>
<path fill="none" stroke="black" d="M955.9,-143.7C955.9,-135.98 955.9,-126.71 955.9,-118.11"/>
<polygon fill="black" stroke="black" points="959.4,-118.1 955.9,-108.1 952.4,-118.1 959.4,-118.1"/>
</g>
<!-- hwdb -->
<g id="node8" class="node">
<title>hwdb</title>
<ellipse fill="none" stroke="black" cx="203.9" cy="-90" rx="36.29" ry="18"/>
<text text-anchor="middle" x="203.9" y="-86.3" font-family="Times,serif" font-size="14.00">hwdb</text>
</g>
<!-- hwdb&#45;&gt;systemd&#45;reexec -->
<g id="edge5" class="edge">
<title>hwdb&#45;&gt;systemd&#45;reexec</title>
<path fill="none" stroke="black" d="M218.42,-73.12C226.45,-64.33 236.6,-53.23 245.61,-43.37"/>
<polygon fill="black" stroke="black" points="248.37,-45.54 252.54,-35.8 243.21,-40.82 248.37,-45.54"/>
</g>
<!-- linux&#45;driver&#45;management -->
<g id="node9" class="node">
<title>linux&#45;driver&#45;management</title>
<ellipse fill="none" stroke="black" cx="574.9" cy="-162" rx="128.08" ry="18"/>
<text text-anchor="middle" x="574.9" y="-158.3" font-family="Times,serif" font-size="14.00">linux&#45;driver&#45;management</text>
</g>
<!-- linux&#45;driver&#45;management&#45;&gt;depmod -->
<g id="edge6" class="edge">
<title>linux&#45;driver&#45;management&#45;&gt;depmod</title>
<path fill="none" stroke="black" d="M623.37,-145.29C660.09,-133.39 710.17,-117.16 745.99,-105.55"/>
<polygon fill="black" stroke="black" points="747.25,-108.82 755.69,-102.41 745.1,-102.16 747.25,-108.82"/>
</g>
<!-- mono&#45;certs -->
<g id="node10" class="node">
<title>mono&#45;certs</title>
<ellipse fill="none" stroke="black" cx="1072.9" cy="-234" rx="62.29" ry="18"/>
<text text-anchor="middle" x="1072.9" y="-230.3" font-family="Times,serif" font-size="14.00">mono&#45;certs</text>
</g>
<!-- ssl -->
<g id="node11" class="node">
<title>ssl</title>
<ellipse fill="none" stroke="black" cx="1072.9" cy="-162" rx="27" ry="18"/>
<text text-anchor="middle" x="1072.9" y="-158.3" font-family="Times,serif" font-size="14.00">ssl</text>
</g>
<!-- mono&#45;certs&#45;&gt;ssl -->
<g id="edge7" class="edge">
<title>mono&#45;certs&#45;&gt;ssl</title>
<path fill="none" stroke="black" d="M1072.9,-215.7C1072.9,-207.98 1072.9,-198.71 1072.9,-190.11"/>
<polygon fill="black" stroke="black" points="1076.4,-190.1 1072.9,-180.1 1069.4,-190.1 1076.4,-190.1"/>
</g>
<!-- qol&#45;assist -->
<g id="node12" class="node">
<title>qol&#45;assist</title>
<ellipse fill="none" stroke="black" cx="346.9" cy="-234" rx="54.69" ry="18"/>
<text text-anchor="middle" x="346.9" y="-230.3" font-family="Times,serif" font-size="14.00">qol&#45;assist</text>
</g>
<!-- systemd&#45;reload -->
<g id="node13" class="node">
<title>systemd&#45;reload</title>
<ellipse fill="none" stroke="black" cx="346.9" cy="-162" rx="81.79" ry="18"/>
<text text-anchor="middle" x="346.9" y="-158.3" font-family="Times,serif" font-size="14.00">systemd&#45;reload</text>
</g>
<!-- qol&#45;assist&#45;&gt;systemd&#45;reload -->
<g id="edge8" class="edge">
<title>qol&#45;assist&#45;&gt;systemd&#45;reload</title>
<path fill="none" stroke="black" d="M346.9,-215.7C346.9,-207.98 346.9,-198.71 346.9,-190.11"/>
<polygon fill="black" stroke="black" points="350.4,-190.1 346.9,-180.1 343.4,-190.1 350.4,-190.1"/>
</g>
<!-- systemd&#45;reload&#45;&gt;systemd&#45;reexec -->
<g id="edge9" class="edge">
<title>systemd&#45;reload&#45;&gt;systemd&#45;reexec</title>
<path fill="none" stroke="black" d="M321.82,-144.67C309.48,-135.36 295.45,-122.64 286.9,-108 275.9,-89.18 271.24,-64.81 269.28,-46.32"/>
<polygon fill="black" stroke="black" points="272.75,-45.87 268.41,-36.21 265.78,-46.47 272.75,-45.87"/>
</g>
<!-- sysusers -->
<g id="node14" class="node">
<title>sysusers</title>
<ellipse fill="none" stroke="black" cx="346.9" cy="-90" rx="51.19" ry="18"/>
<text text-anchor="middle" x="346.9" y="-86.3" font-family="Times,serif" font-size="14.00">sysusers</text>
</g>
<!-- systemd&#45;reload&#45;&gt;sysusers -->
<g id="edge10" class="edge">
<title>systemd&#45;reload&#45;&gt;sysusers</title>
<path fill="none" stroke="black" d="M346.9,-143.7C346.9,-135.98 346.9,-126.71 346.9,-118.11"/>
<polygon fill="black" stroke="black" points="350.4,-118.1 346.9,-108.1 343.4,-118.1 350.4,-118.1"/>
</g>
<!-- tmpfiles -->
<g id="node15" class="node">
<title>tmpfiles</title>
<ellipse fill="none" stroke="black" cx="463.9" cy="-90" rx="48.19" ry="18"/>
<text text-anchor="middle" x="463.9" y="-86.3" font-family="Times,serif" font-size="14.00">tmpfiles</text>
</g>
<!-- systemd&#45;reload&#45;&gt;tmpfiles -->
<g id="edge11" class="edge">
<title>systemd&#45;reload&#45;&gt;tmpfiles</title>
<path fill="none" stroke="black" d="M373.74,-144.94C390.63,-134.84 412.56,-121.71 430.56,-110.94"/>
<polygon fill="black" stroke="black" points="432.78,-113.69 439.57,-105.56 429.19,-107.69 432.78,-113.69"/>
</g>
<!-- sysusers&#45;&gt;systemd&#45;reexec -->
<g id="edge13" class="edge">
<title>sysusers&#45;&gt;systemd&#45;reexec</title>
<path fill="none" stroke="black" d="M328.97,-73.12C318.69,-64 305.59,-52.4 294.16,-42.28"/>
<polygon fill="black" stroke="black" points="296.38,-39.56 286.57,-35.55 291.74,-44.8 296.38,-39.56"/>
</g>
<!-- tmpfiles&#45;&gt;systemd&#45;reexec -->
<g id="edge14" class="edge">
<title>tmpfiles&#45;&gt;systemd&#45;reexec</title>
<path fill="none" stroke="black" d="M430.2,-76.97C399.49,-66 353.69,-49.64 318.56,-37.09"/>
<polygon fill="black" stroke="black" points="319.55,-33.73 308.96,-33.67 317.2,-40.32 319.55,-33.73"/>
</g>
<!-- systemd&#45;sockets -->
<g id="node16" class="node">
<title>systemd&#45;sockets</title>
<ellipse fill="none" stroke="black" cx="616.9" cy="-90" rx="87.18" ry="18"/>
<text text-anchor="middle" x="616.9" y="-86.3" font-family="Times,serif" font-size="14.00">systemd&#45;sockets</text>
</g>
<!-- systemd&#45;sockets&#45;&gt;systemd&#45;reexec -->
<g id="edge12" class="edge">
<title>systemd&#45;sockets&#45;&gt;systemd&#45;reexec</title>
<path fill="none" stroke="black" d="M556.5,-76.89C495.3,-64.61 400.74,-45.65 336.69,-32.8"/>
<polygon fill="black" stroke="black" points="337.17,-29.33 326.68,-30.79 335.79,-36.19 337.17,-29.33"/>
</g>
<!-- udev&#45;rules -->
<g id="node17" class="node">
<title>udev&#45;rules</title>
<ellipse fill="none" stroke="black" cx="163.9" cy="-162" rx="59.59" ry="18"/>
<text text-anchor="middle" x="163.9" y="-158.3" font-family="Times,serif" font-size="14.00">udev&#45;rules</text>
</g>
<!-- udev&#45;rules&#45;&gt;systemd&#45;reexec -->
<g id="edge16" class="edge">
<title>udev&#45;rules&#45;&gt;systemd&#45;reexec</title>
<path fill="none" stroke="black" d="M157.42,-143.81C151.42,-124.73 145.27,-93.78 158.9,-72 169.4,-55.21 186.91,-43.61 204.85,-35.64"/>
<polygon fill="black" stroke="black" points="206.31,-38.83 214.24,-31.8 203.66,-32.35 206.31,-38.83"/>
</g>
<!-- udev&#45;rules&#45;&gt;hwdb -->
<g id="edge15" class="edge">
<title>udev&#45;rules&#45;&gt;hwdb</title>
<path fill="none" stroke="black" d="M173.58,-144.05C178.29,-135.8 184.07,-125.7 189.3,-116.54"/>
<polygon fill="black" stroke="black" points="192.38,-118.21 194.3,-107.79 186.3,-114.73 192.38,-118.21"/>
</g>
<!-- vbox&#45;restart -->
<g id="node18" class="node">
<title>vbox&#45;restart</title>
<ellipse fill="none" stroke="black" cx="810.9" cy="-234" rx="67.69" ry="18"/>
<text text-anchor="middle" x="810.9" y="-230.3" font-family="Times,serif" font-size="14.00">vbox&#45;restart</text>
</g>
<!-- vbox&#45;restart&#45;&gt;clr&#45;boot&#45;manager -->
<g id="edge17" class="edge">
<title>vbox&#45;restart&#45;&gt;clr&#45;boot&#45;manager</title>
<path fill="none" stroke="black" d="M810.9,-215.7C810.9,-207.98 810.9,-198.71 810.9,-190.11"/>
<polygon fill="black" stroke="black" points="814.4,-190.1 810.9,-180.1 807.4,-190.1 814.4,-190.1"/>
</g>
</g>
</svg>
